<svg xmlns="http://www.w3.org/2000/svg" xmlns:xlink="http://www.w3.org/1999/xlink" preserveAspectRatio="xMidYMid" width="219" height="47" viewBox="0 0 219 47">
  <defs>
    <style>

      .cls-2 {
        fill: #ffffff;
      }
    </style>
  </defs>
  <path d="M212.676,25.082 C212.243,25.739 212.298,26.170 212.708,26.790 C214.604,29.655 216.449,32.554 218.305,35.445 C218.437,35.651 218.728,35.852 218.594,36.115 C218.454,36.387 218.124,36.238 217.883,36.240 C216.258,36.253 214.632,36.217 213.008,36.262 C212.398,36.279 212.081,36.036 211.776,35.549 C210.107,32.885 208.407,30.240 206.717,27.590 C206.528,27.294 206.329,27.005 206.134,26.714 C206.061,26.727 205.988,26.741 205.915,26.755 C205.915,29.272 205.915,31.790 205.915,34.308 C205.915,34.729 205.894,35.151 205.919,35.571 C205.949,36.067 205.759,36.262 205.246,36.255 C203.621,36.233 201.995,36.220 200.371,36.260 C199.656,36.277 199.697,35.862 199.698,35.387 C199.704,32.633 199.701,29.880 199.701,27.126 C199.701,20.323 199.719,13.520 199.679,6.718 C199.674,5.823 199.943,5.565 200.808,5.538 C202.170,5.496 203.532,5.354 204.884,5.173 C205.700,5.064 205.938,5.288 205.933,6.124 C205.898,12.085 205.914,18.045 205.914,24.006 C205.913,24.359 205.914,24.711 205.914,25.078 C206.367,25.073 206.404,24.718 206.541,24.502 C208.204,21.873 209.866,19.242 211.492,16.590 C211.820,16.056 212.177,15.843 212.815,15.859 C214.657,15.904 216.501,15.875 218.348,15.875 C218.403,16.324 218.124,16.546 217.960,16.805 C216.212,19.572 214.480,22.350 212.676,25.082 ZM188.071,36.654 C186.865,36.718 185.665,36.646 184.485,36.400 C180.096,35.485 177.397,32.295 177.118,27.700 C177.085,27.152 177.114,26.600 177.114,26.049 C177.042,24.879 177.126,23.719 177.390,22.577 C178.332,18.496 181.285,15.957 185.643,15.525 C187.232,15.367 188.819,15.408 190.386,15.792 C194.157,16.717 196.373,19.129 197.160,22.866 C197.544,24.686 197.540,26.545 197.293,28.378 C196.613,33.431 193.302,36.373 188.071,36.654 ZM190.928,22.970 C190.369,21.197 189.111,20.299 187.197,20.309 C185.324,20.319 183.998,21.257 183.556,23.067 C183.074,25.042 183.076,27.061 183.555,29.037 C183.990,30.832 185.330,31.788 187.196,31.806 C189.071,31.825 190.378,30.889 190.928,29.137 C191.243,28.129 191.213,27.089 191.227,26.053 C191.213,25.017 191.246,23.977 190.928,22.970 ZM165.671,36.655 C164.464,36.715 163.265,36.642 162.084,36.396 C157.628,35.471 154.930,32.184 154.716,27.384 C154.648,25.866 154.635,24.343 154.961,22.839 C155.840,18.792 158.415,16.333 162.522,15.637 C164.238,15.347 165.954,15.367 167.656,15.707 C171.798,16.535 174.513,19.575 174.941,23.848 C175.015,24.588 175.025,25.334 175.073,26.235 C175.015,26.985 175.017,27.900 174.865,28.788 C174.038,33.609 170.752,36.403 165.671,36.655 ZM168.679,23.498 C168.329,21.474 166.960,20.343 164.995,20.310 C162.897,20.276 161.594,21.300 161.087,23.350 C160.866,24.243 160.902,25.146 160.893,26.049 C160.901,26.952 160.868,27.855 161.088,28.747 C161.594,30.790 162.930,31.849 164.990,31.807 C166.959,31.766 168.314,30.642 168.676,28.611 C168.978,26.917 168.971,25.192 168.679,23.498 ZM141.216,36.085 C140.026,35.585 139.083,34.780 138.193,33.726 C138.193,34.223 138.150,34.725 138.203,35.217 C138.287,35.997 138.048,36.313 137.199,36.266 C135.903,36.194 134.597,36.194 133.301,36.266 C132.453,36.312 132.286,35.992 132.289,35.215 C132.316,28.218 132.305,21.222 132.305,14.225 C132.305,11.666 132.328,9.107 132.289,6.548 C132.279,5.844 132.475,5.587 133.203,5.557 C134.533,5.502 135.856,5.323 137.184,5.217 C138.721,5.095 138.505,4.995 138.509,6.393 C138.520,10.053 138.510,13.714 138.518,17.374 C138.519,17.649 138.424,17.945 138.648,18.280 C139.169,17.682 139.637,17.079 140.267,16.632 C143.366,14.433 148.428,15.324 150.739,18.497 C151.838,20.005 152.370,21.724 152.550,23.559 C152.812,26.221 152.816,28.870 151.894,31.430 C150.324,35.786 145.498,37.882 141.216,36.085 ZM146.461,25.995 C146.506,24.927 146.466,23.830 146.085,22.772 C145.494,21.132 144.253,20.303 142.404,20.310 C140.628,20.317 139.340,21.140 138.874,22.806 C138.272,24.962 138.273,27.176 138.885,29.330 C139.344,30.943 140.639,31.780 142.342,31.806 C144.176,31.835 145.460,31.003 146.064,29.390 C146.470,28.304 146.503,27.173 146.461,25.995 ZM129.003,28.214 C127.087,28.183 125.170,28.202 123.253,28.203 C121.401,28.203 119.548,28.244 117.698,28.185 C116.826,28.157 116.735,28.496 116.894,29.218 C117.249,30.828 118.094,31.734 119.730,32.017 C122.355,32.470 124.912,32.067 127.397,31.214 C128.053,30.989 128.237,31.134 128.368,31.751 C128.570,32.699 128.836,33.635 129.110,34.566 C129.239,35.004 129.221,35.303 128.723,35.465 C124.455,36.857 120.146,37.316 115.826,35.792 C113.211,34.870 111.617,32.915 110.990,30.246 C110.383,27.662 110.364,25.024 110.858,22.433 C111.635,18.356 114.611,15.906 119.027,15.516 C120.162,15.416 121.302,15.394 122.432,15.549 C126.776,16.148 129.402,18.997 129.696,23.470 C129.784,24.793 129.723,26.125 129.782,27.450 C129.809,28.060 129.592,28.224 129.003,28.214 ZM122.372,20.029 C119.663,18.790 116.868,20.539 116.803,23.491 C116.792,23.994 116.926,24.185 117.444,24.170 C118.447,24.142 119.451,24.162 120.455,24.162 C121.491,24.162 122.527,24.167 123.563,24.158 C123.836,24.155 124.128,24.220 124.227,23.792 C124.523,22.526 123.586,20.585 122.372,20.029 ZM108.638,20.563 C108.499,21.066 108.313,21.156 107.824,20.949 C106.487,20.384 105.077,20.190 103.627,20.295 C101.428,20.454 100.014,21.716 99.652,23.881 C99.410,25.330 99.413,26.787 99.654,28.235 C100.012,30.384 101.448,31.661 103.639,31.818 C105.022,31.917 106.379,31.756 107.651,31.215 C108.324,30.928 108.541,31.109 108.707,31.757 C108.946,32.697 109.243,33.626 109.588,34.532 C109.825,35.153 109.673,35.463 109.069,35.713 C106.911,36.603 104.666,36.778 102.371,36.603 C101.886,36.566 101.400,36.503 100.922,36.415 C96.435,35.591 93.775,32.665 93.402,28.120 C93.347,27.444 93.395,26.760 93.395,26.080 C93.310,24.846 93.357,23.616 93.643,22.409 C94.467,18.929 96.612,16.704 100.106,15.882 C103.108,15.177 106.096,15.225 109.015,16.368 C109.645,16.614 109.844,16.926 109.581,17.603 C109.206,18.567 108.915,19.566 108.638,20.563 ZM90.147,36.264 C88.752,36.203 87.351,36.215 85.954,36.261 C85.276,36.284 85.008,36.076 85.070,35.388 C85.119,34.846 85.080,34.297 85.080,33.751 C83.043,36.506 80.338,37.052 77.283,36.463 C74.324,35.894 72.430,34.016 71.565,31.210 C70.498,27.753 70.483,24.225 71.600,20.780 C72.916,16.718 76.908,14.627 81.076,15.658 C82.641,16.046 83.462,16.641 85.082,18.656 C85.082,17.796 85.097,17.143 85.077,16.492 C85.062,16.034 85.241,15.863 85.705,15.869 C87.266,15.888 88.827,15.900 90.387,15.865 C91.018,15.850 91.045,16.176 91.043,16.651 C91.030,19.341 91.037,22.031 91.037,24.720 C91.037,28.253 91.018,31.785 91.052,35.317 C91.059,36.017 90.913,36.298 90.147,36.264 ZM84.609,23.131 C84.137,21.337 82.912,20.340 81.129,20.309 C79.138,20.275 77.848,21.143 77.367,23.003 C76.849,25.006 76.854,27.051 77.355,29.057 C77.820,30.918 79.136,31.833 81.084,31.807 C82.901,31.783 84.165,30.749 84.622,28.922 C84.852,28.000 84.838,27.061 84.834,26.123 C84.833,25.120 84.868,24.116 84.609,23.131 ZM69.889,10.040 C69.143,10.011 68.395,10.016 67.648,10.040 C66.077,10.089 65.409,10.726 65.327,12.302 C65.277,13.271 65.327,14.245 65.289,15.215 C65.270,15.728 65.459,15.893 65.963,15.883 C67.197,15.857 68.433,15.903 69.666,15.863 C70.283,15.843 70.461,16.054 70.386,16.648 C70.232,17.868 70.099,19.092 70.011,20.318 C69.973,20.846 69.729,20.956 69.266,20.947 C68.227,20.927 67.184,20.982 66.148,20.927 C65.448,20.890 65.279,21.142 65.283,21.808 C65.310,26.243 65.266,30.680 65.322,35.115 C65.335,36.085 65.041,36.321 64.122,36.267 C62.762,36.188 61.393,36.209 60.030,36.262 C59.310,36.290 59.074,36.086 59.090,35.344 C59.137,33.079 59.107,30.811 59.107,28.545 C59.107,26.278 59.084,24.011 59.121,21.745 C59.131,21.095 58.914,20.900 58.286,20.930 C57.378,20.974 56.467,20.923 55.558,20.947 C55.093,20.960 54.933,20.790 54.940,20.330 C54.962,19.068 54.964,17.804 54.939,16.542 C54.929,16.046 55.083,15.847 55.602,15.867 C56.478,15.900 57.359,15.836 58.233,15.888 C58.903,15.928 59.140,15.729 59.123,15.031 C59.088,13.609 59.056,12.184 59.247,10.764 C59.670,7.633 61.391,5.800 64.516,5.246 C66.323,4.926 68.142,5.075 69.958,5.196 C70.408,5.227 70.571,5.420 70.563,5.870 C70.540,7.035 70.536,8.201 70.564,9.366 C70.576,9.873 70.397,10.059 69.889,10.040 ZM23.416,43.508 C21.081,43.508 18.826,43.189 16.698,42.599 C16.698,42.599 8.723,46.988 8.723,46.988 C8.723,46.988 8.723,38.695 8.723,38.695 C3.400,34.709 -0.006,28.604 -0.006,21.760 C-0.006,9.749 10.480,0.012 23.416,0.012 C36.352,0.012 46.838,9.749 46.838,21.760 C46.838,33.771 36.352,43.508 23.416,43.508 ZM27.053,22.050 C27.053,22.050 20.943,15.671 20.943,15.671 C20.943,15.671 8.141,29.299 8.141,29.299 C8.141,29.299 19.779,22.920 19.779,22.920 C19.779,22.920 25.744,29.299 25.744,29.299 C25.744,29.299 38.546,15.671 38.546,15.671 C38.546,15.671 27.053,22.050 27.053,22.050 Z" id="path-1" class="cls-2" fill-rule="evenodd"/>
</svg>
