<?xml version="1.0" ?><!DOCTYPE svg  PUBLIC '-//W3C//DTD SVG 1.1//EN'  'http://www.w3.org/Graphics/SVG/1.1/DTD/svg11.dtd'><svg enable-background="new 0 0 512 512" height="512px" id="Facebook_Messenger" version="1.1" viewBox="0 0 512 512" width="512px" xml:space="preserve" xmlns="http://www.w3.org/2000/svg" xmlns:xlink="http://www.w3.org/1999/xlink"><g id="bg_6_"><g><polygon fill="#0084FF" points="0,0 0,512 355,512 512,354 512,0   "/></g></g><g id="Facebook_Messenger_1_"><g><path d="M257,93c-88.918,0-161,67.157-161,150c0,47.205,23.412,89.31,60,116.806V417l54.82-30.273    C225.449,390.801,240.948,393,257,393c88.918,0,161-67.157,161-150S345.918,93,257,93z M273,295l-41-44l-80,44l88-94l42,44l79-44    L273,295z" fill="#FFFFFF"/></g></g><g id="Clip_Light_6_"><g><polygon fill="#00B4FF" points="355,354 355,512.02 512,354   "/></g></g><g id="Shadow_Clip_6_" opacity="0.102"><g><polygon points="198,512 355,512 355,353.98   "/></g></g></svg>