<svg xmlns="http://www.w3.org/2000/svg" xmlns:xlink="http://www.w3.org/1999/xlink" preserveAspectRatio="xMidYMid" width="75" height="38" viewBox="0 0 75 38">
  <defs>
    <style>

      .cls-2 {
        fill: #ffffff;
      }
    </style>
  </defs>
  <path d="M70.191,26.686 C67.823,26.686 65.904,24.782 65.904,22.432 C65.904,20.083 67.823,18.178 70.191,18.178 C72.560,18.178 74.480,20.083 74.480,22.432 C74.480,24.782 72.560,26.686 70.191,26.686 ZM60.498,37.126 C59.111,37.126 57.905,36.378 57.227,35.267 C57.227,35.267 50.775,26.672 50.775,26.672 C50.775,26.672 48.818,28.480 48.818,28.480 C48.818,28.480 48.818,33.511 48.818,33.511 C48.818,33.511 48.752,33.509 48.752,33.509 C48.638,35.523 47.001,37.126 44.979,37.126 C42.882,37.126 41.184,35.409 41.184,33.291 C41.184,33.265 41.191,33.241 41.191,33.215 C41.191,33.215 41.100,33.211 41.100,33.211 C41.100,33.211 41.100,4.024 41.100,4.024 C41.100,4.024 41.198,4.025 41.198,4.025 C41.197,3.979 41.185,3.936 41.185,3.890 C41.185,1.748 42.891,0.013 44.996,0.013 C47.100,0.013 48.806,1.748 48.806,3.890 C48.806,3.963 48.789,4.032 48.785,4.105 C48.785,4.105 48.847,4.106 48.847,4.106 C48.847,4.106 48.885,18.324 48.885,18.324 C48.885,18.324 56.056,11.335 56.056,11.335 C56.056,11.335 56.068,11.347 56.068,11.347 C56.777,10.563 57.792,10.062 58.932,10.062 C61.073,10.062 62.808,11.797 62.808,13.937 C62.808,14.975 62.394,15.912 61.730,16.608 C61.730,16.608 61.775,16.650 61.775,16.650 C61.775,16.650 56.730,21.601 56.730,21.601 C56.730,21.601 63.782,31.073 63.782,31.073 C63.782,31.073 63.724,31.115 63.724,31.115 C64.117,31.725 64.350,32.451 64.350,33.233 C64.350,35.383 62.626,37.126 60.498,37.126 ZM31.787,37.129 C29.684,37.129 27.981,35.417 27.953,33.296 C27.953,33.296 27.899,33.296 27.899,33.296 C27.899,33.296 27.907,14.034 27.907,14.034 C27.907,14.034 27.957,14.034 27.957,14.034 C27.956,14.004 27.948,13.975 27.948,13.945 C27.948,11.799 29.667,10.060 31.787,10.060 C33.907,10.060 35.625,11.799 35.625,13.945 C35.625,13.984 35.615,14.021 35.613,14.060 C35.613,14.060 35.669,14.061 35.669,14.061 C35.669,14.061 35.670,33.296 35.670,33.296 C35.670,33.296 35.620,33.296 35.620,33.296 C35.592,35.417 33.889,37.129 31.787,37.129 ZM19.394,37.126 C18.006,37.126 16.800,36.378 16.121,35.265 C16.121,35.265 9.670,26.672 9.670,26.672 C9.670,26.672 7.713,28.480 7.713,28.480 C7.713,28.480 7.713,33.511 7.713,33.511 C7.713,33.511 7.647,33.509 7.647,33.509 C7.534,35.523 5.897,37.126 3.874,37.126 C1.778,37.126 0.079,35.409 0.079,33.291 C0.079,33.265 0.086,33.241 0.087,33.215 C0.087,33.215 -0.005,33.211 -0.005,33.211 C-0.005,33.211 -0.004,4.024 -0.004,4.024 C-0.004,4.024 0.094,4.025 0.094,4.025 C0.092,3.979 0.080,3.936 0.080,3.890 C0.080,1.748 1.787,0.013 3.891,0.013 C5.995,0.013 7.701,1.748 7.701,3.890 C7.701,3.963 7.684,4.032 7.680,4.105 C7.680,4.105 7.742,4.106 7.742,4.106 C7.742,4.106 7.780,18.324 7.780,18.324 C7.780,18.324 14.951,11.335 14.951,11.335 C14.951,11.335 14.963,11.347 14.963,11.347 C15.673,10.563 16.688,10.062 17.827,10.062 C19.968,10.062 21.703,11.797 21.703,13.937 C21.703,14.975 21.290,15.912 20.626,16.608 C20.626,16.608 20.671,16.650 20.671,16.650 C20.671,16.650 15.625,21.601 15.625,21.601 C15.625,21.601 22.677,31.073 22.677,31.073 C22.677,31.073 22.619,31.115 22.619,31.115 C23.013,31.725 23.246,32.451 23.246,33.233 C23.246,35.383 21.521,37.126 19.394,37.126 Z" id="path-1" class="cls-2" fill-rule="evenodd"/>
</svg>
