<?xml version="1.0" encoding="UTF-8" standalone="no"?>
<svg width="190px" height="190px" viewBox="0 0 190 190" version="1.1" xmlns="http://www.w3.org/2000/svg" xmlns:xlink="http://www.w3.org/1999/xlink">
    <!-- Generator: Sketch 39.1 (31720) - http://www.bohemiancoding.com/sketch -->
    <title>icon_3@2x</title>
    <desc>Created with Sketch.</desc>
    <defs>
        <rect id="path-1" x="49.9714286" y="20.5090909" width="57.9214286" height="56.969697" rx="28.4848485"></rect>
        <mask id="mask-2" maskContentUnits="userSpaceOnUse" maskUnits="objectBoundingBox" x="0" y="0" width="57.9214286" height="56.969697" fill="white">
            <use xlink:href="#path-1"></use>
        </mask>
        <rect id="path-3" x="56.7857143" y="143.563636" width="44.2928571" height="44.4363636"></rect>
        <mask id="mask-4" maskContentUnits="userSpaceOnUse" maskUnits="objectBoundingBox" x="0" y="0" width="44.2928571" height="44.4363636" fill="white">
            <use xlink:href="#path-3"></use>
        </mask>
        <rect id="path-5" x="55.65" y="84.3151515" width="48.8357143" height="70.6424242" rx="24.4178571"></rect>
        <mask id="mask-6" maskContentUnits="userSpaceOnUse" maskUnits="objectBoundingBox" x="0" y="0" width="48.8357143" height="70.6424242" fill="white">
            <use xlink:href="#path-5"></use>
        </mask>
        <ellipse id="path-7" cx="148.778571" cy="135.587879" rx="7.95" ry="7.97575758"></ellipse>
        <mask id="mask-8" maskContentUnits="userSpaceOnUse" maskUnits="objectBoundingBox" x="0" y="0" width="15.9" height="15.9515152" fill="white">
            <use xlink:href="#path-7"></use>
        </mask>
        <rect id="path-9" x="147.642857" y="135.587879" width="2.27142857" height="7.97575758"></rect>
        <mask id="mask-10" maskContentUnits="userSpaceOnUse" maskUnits="objectBoundingBox" x="0" y="0" width="2.27142857" height="7.97575758" fill="white">
            <use xlink:href="#path-9"></use>
        </mask>
        <ellipse id="path-11" cx="10.2214286" cy="135.587879" rx="7.95" ry="7.97575758"></ellipse>
        <mask id="mask-12" maskContentUnits="userSpaceOnUse" maskUnits="objectBoundingBox" x="0" y="0" width="15.9" height="15.9515152" fill="white">
            <use xlink:href="#path-11"></use>
        </mask>
        <rect id="path-13" x="9.08571429" y="135.587879" width="2.27142857" height="7.97575758"></rect>
        <mask id="mask-14" maskContentUnits="userSpaceOnUse" maskUnits="objectBoundingBox" x="0" y="0" width="2.27142857" height="7.97575758" fill="white">
            <use xlink:href="#path-13"></use>
        </mask>
        <rect id="path-15" x="138.557143" y="123.054545" width="20.4428571" height="6.83636364"></rect>
        <mask id="mask-16" maskContentUnits="userSpaceOnUse" maskUnits="objectBoundingBox" x="0" y="0" width="20.4428571" height="6.83636364" fill="white">
            <use xlink:href="#path-15"></use>
        </mask>
        <rect id="path-17" x="0" y="123.054545" width="20.4428571" height="6.83636364"></rect>
        <mask id="mask-18" maskContentUnits="userSpaceOnUse" maskUnits="objectBoundingBox" x="0" y="0" width="20.4428571" height="6.83636364" fill="white">
            <use xlink:href="#path-17"></use>
        </mask>
    </defs>
    <g id="Icons" stroke="none" stroke-width="1" fill="none" fill-rule="evenodd">
        <g id="icon_3">
            <g id="Group-2" transform="translate(16.000000, 1.000000)">
                <path d="M114.874247,95.7274503 C139.374731,95.7274503 143.764533,119.834979 143.764533,124.601184 L152.901357,124.601184 C152.901358,91.060831 123.662168,86.5939394 114.874247,86.5939394 C114.498263,86.5939394 114.874247,95.7274503 114.874247,95.7274503 Z" id="Path-3" stroke="#00A1FF" stroke-width="1.79904306" fill="#FFFFFF"></path>
                <path d="M5.84567522,95.7274503 C30.3461593,95.7274503 34.7359612,119.834979 34.7359619,124.601184 L43.8727853,124.601184 C43.872787,91.060831 14.6335971,86.5939394 5.84567522,86.5939394 C5.46969169,86.5939394 5.84567522,95.7274503 5.84567522,95.7274503 Z" id="Path-3" stroke="#00A1FF" stroke-width="1.79904306" fill="#FFFFFF" transform="translate(24.775678, 105.597562) scale(-1, 1) translate(-24.775678, -105.597562) "></path>
                <use id="Rectangle-6" stroke="#00A1FF" mask="url(#mask-2)" stroke-width="3.59808612" fill="#FFFFFF" xlink:href="#path-1"></use>
                <use id="Rectangle-6" stroke="#00A1FF" mask="url(#mask-4)" stroke-width="3.59808612" fill="#FFFFFF" xlink:href="#path-3"></use>
                <polygon id="Rectangle-6" stroke="#00A1FF" stroke-width="1.79904306" fill="#FFFFFF" points="46.5642857 79.7575758 112.435714 79.7575758 107.892857 165.212121 49.9714286 165.212121"></polygon>
                <rect id="Rectangle-5" stroke="#00A1FF" stroke-width="1.79904306" fill="#FFFFFF" x="45.4285714" y="48.9939394" width="4.54285714" height="25.0666667"></rect>
                <rect id="Rectangle-5" stroke="#00A1FF" stroke-width="1.79904306" fill="#FFFFFF" x="107.892857" y="48.9939394" width="4.54285714" height="25.0666667"></rect>
                <rect id="Rectangle-5" fill="#00A1FF" x="42.0214286" y="79.7575758" width="5.67857143" height="20.5090909"></rect>
                <rect id="Rectangle-5" fill="#00A1FF" x="54.5142857" y="77.2389155" width="48.8357143" height="2.27878788"></rect>
                <rect id="Rectangle-5" fill="#00A1FF" x="77.2285714" y="7.97575758" width="2.27142857" height="13.6727273"></rect>
                <rect id="Rectangle-5" fill="#00A1FF" x="69.2785714" y="67.2242424" width="19.3071429" height="2.27878788"></rect>
                <rect id="Rectangle-5" fill="#00A1FF" x="54.5142857" y="165.451994" width="48.8357143" height="2.27878788"></rect>
                <rect id="Rectangle-5" fill="#00A1FF" x="111.062591" y="79.7575758" width="5.67857143" height="20.5090909"></rect>
                <use id="Rectangle-6" stroke="#00A1FF" mask="url(#mask-6)" stroke-width="3.59808612" fill="#FFFFFF" xlink:href="#path-5"></use>
                <ellipse id="Oval-2" stroke="#00A1FF" stroke-width="1.79904306" fill="#FFFFFF" cx="80.0678571" cy="111.090909" rx="17.6035714" ry="17.6606061"></ellipse>
                <ellipse id="Oval-3" stroke="#00A1FF" stroke-width="0.899521531" fill="#00A1FF" cx="61.3285714" cy="54.6909091" rx="4.54285714" ry="4.55757576"></ellipse>
                <ellipse id="Oval-3" stroke="#00A1FF" stroke-width="0.899521531" fill="#00A1FF" cx="96.5357143" cy="54.6909091" rx="4.54285714" ry="4.55757576"></ellipse>
                <ellipse id="Oval-3" stroke="#00A1FF" stroke-width="0.899521531" fill="#00A1FF" cx="78.3642857" cy="4.55757576" rx="4.54285714" ry="4.55757576"></ellipse>
                <ellipse id="Oval" stroke="#00A1FF" stroke-width="1.79904306" fill="#FFFFFF" cx="72.6857143" cy="119.636364" rx="2.27142857" ry="2.27878788"></ellipse>
                <ellipse id="Oval" stroke="#00A1FF" stroke-width="1.79904306" fill="#FFFFFF" cx="80.6357143" cy="119.636364" rx="2.27142857" ry="2.27878788"></ellipse>
                <path d="M79.9621104,113.085514 C80.8682353,113.085514 81.6027947,112.348574 81.6027947,111.439513 C81.6027947,110.530453 79.9621104,106.673507 79.9621104,106.673507 C79.9621104,106.673507 78.321426,110.530453 78.321426,111.439513 C78.321426,112.348574 79.0559854,113.085514 79.9621104,113.085514 Z" id="Oval" stroke="#00A1FF" stroke-width="1.79904306" fill="#00A1FF" transform="translate(79.962110, 109.879510) rotate(-30.000000) translate(-79.962110, -109.879510) "></path>
                <ellipse id="Oval" stroke="#00A1FF" stroke-width="1.79904306" fill="#FFFFFF" cx="88.5857143" cy="119.636364" rx="2.27142857" ry="2.27878788"></ellipse>
                <path d="M63.0321429,111.660606 L68.7107143,111.660606" id="Line" stroke="#00A1FF" stroke-width="1.79904306" stroke-linecap="square"></path>
                <path d="M65.3035714,139.006061 L96.5357143,139.006061" id="Line" stroke="#00A1FF" stroke-width="1.79904306" stroke-linecap="square"></path>
                <path d="M65.3035714,143.563636 L96.5357143,143.563636" id="Line" stroke="#00A1FF" stroke-width="1.79904306" stroke-linecap="square"></path>
                <path d="M65.3035714,148.121212 L96.5357143,148.121212" id="Line" stroke="#00A1FF" stroke-width="1.79904306" stroke-linecap="square"></path>
                <path d="M80.6357143,99.4694247 L80.6357143,94.569697" id="Line" stroke="#00A1FF" stroke-width="1.79904306" stroke-linecap="square"></path>
                <path d="M72.3640765,102.45032 L69.1631568,99.2390292" id="Line" stroke="#00A1FF" stroke-width="1.79904306" stroke-linecap="square"></path>
                <path d="M30.3426479,97.8927438 L26.1214286,91.1515152" id="Line" stroke="#00A1FF" stroke-width="1.79904306" stroke-linecap="square"></path>
                <path d="M21.2569336,104.729107 L14.7642857,100.266667" id="Line" stroke="#00A1FF" stroke-width="1.79904306" stroke-linecap="square"></path>
                <path d="M15.5783622,114.983653 L7.95,112.8" id="Line" stroke="#00A1FF" stroke-width="1.79904306" stroke-linecap="square"></path>
                <path d="M132.556934,97.8927438 L128.335714,91.1515152" id="Line" stroke="#00A1FF" stroke-width="1.79904306" stroke-linecap="square" transform="translate(130.607143, 94.569697) scale(-1, 1) translate(-130.607143, -94.569697) "></path>
                <path d="M143.914076,104.729107 L137.421429,100.266667" id="Line" stroke="#00A1FF" stroke-width="1.79904306" stroke-linecap="square" transform="translate(140.828571, 102.545455) scale(-1, 1) translate(-140.828571, -102.545455) "></path>
                <path d="M150.728362,114.983653 L143.1,112.8" id="Line" stroke="#00A1FF" stroke-width="1.79904306" stroke-linecap="square" transform="translate(147.075000, 113.939394) scale(-1, 1) translate(-147.075000, -113.939394) "></path>
                <path d="M88.2640765,102.45032 L91.9740025,99.3008523" id="Line" stroke="#00A1FF" stroke-width="1.79904306" stroke-linecap="square"></path>
                <path d="M91.425,111.660606 L97.1035714,111.660606" id="Line" stroke="#00A1FF" stroke-width="1.79904306" stroke-linecap="square"></path>
                <use id="Oval-4" stroke="#00A1FF" mask="url(#mask-8)" stroke-width="7.19617225" xlink:href="#path-7"></use>
                <use id="Rectangle-8" stroke="#FFFFFF" mask="url(#mask-10)" stroke-width="1.79904306" fill="#FFFFFF" xlink:href="#path-9"></use>
                <use id="Oval-4" stroke="#00A1FF" mask="url(#mask-12)" stroke-width="7.19617225" xlink:href="#path-11"></use>
                <use id="Rectangle-8" stroke="#FFFFFF" mask="url(#mask-14)" stroke-width="1.79904306" fill="#FFFFFF" xlink:href="#path-13"></use>
                <use id="Rectangle-7" stroke="#00A1FF" mask="url(#mask-16)" stroke-width="3.59808612" fill="#FFFFFF" xlink:href="#path-15"></use>
                <use id="Rectangle-7" stroke="#00A1FF" mask="url(#mask-18)" stroke-width="3.59808612" fill="#FFFFFF" xlink:href="#path-17"></use>
            </g>
        </g>
    </g>
</svg>