<svg xmlns="http://www.w3.org/2000/svg" xmlns:xlink="http://www.w3.org/1999/xlink" preserveAspectRatio="xMidYMid" width="129" height="38" viewBox="0 0 129 38">
  <defs>
    <style>

      .cls-2 {
        fill: #ffffff;
      }
    </style>
  </defs>
  <path d="M126.904,28.857 C124.797,29.617 124.508,29.576 123.765,28.610 C123.765,28.610 117.857,20.761 117.857,20.761 C117.857,20.761 115.214,23.309 115.214,23.309 C115.214,23.309 115.214,28.405 115.214,28.405 C115.214,28.816 114.780,29.248 114.160,29.248 C114.160,29.248 111.310,29.248 111.310,29.248 C110.691,29.248 110.257,28.816 110.257,28.405 C110.257,28.405 110.257,1.446 110.257,1.446 C110.257,0.110 110.628,-0.013 112.735,-0.013 C115.131,-0.013 115.214,0.151 115.214,1.446 C115.214,1.446 115.214,16.775 115.214,16.775 C115.214,16.775 123.310,9.048 123.310,9.048 C124.198,8.206 124.694,8.268 126.284,9.316 C128.040,10.446 128.164,10.754 127.317,11.576 C127.317,11.576 121.286,17.412 121.286,17.412 C121.286,17.412 128.474,26.699 128.474,26.699 C129.300,27.747 128.969,28.117 126.904,28.857 ZM101.065,25.097 C102.304,25.097 103.853,24.624 104.865,24.069 C105.898,23.473 106.125,23.514 107.220,25.097 C108.211,26.576 108.191,26.925 107.302,27.542 C105.712,28.631 103.192,29.473 100.982,29.473 C94.373,29.473 89.953,25.261 89.953,18.953 C89.953,12.686 94.373,8.514 101.024,8.514 C103.048,8.514 105.423,9.192 106.910,10.076 C107.943,10.672 107.984,11.001 106.848,12.747 C105.774,14.391 105.588,14.494 104.452,13.919 C103.585,13.466 102.201,13.076 101.065,13.076 C97.492,13.076 95.117,15.418 95.117,18.953 C95.117,22.631 97.492,25.097 101.065,25.097 ZM86.524,29.268 C86.524,29.268 83.714,29.268 83.714,29.268 C83.074,29.268 82.620,28.795 82.661,28.159 C82.661,28.159 82.702,26.905 82.702,26.905 C81.174,28.590 78.985,29.473 76.795,29.473 C72.540,29.473 69.690,27.028 69.690,23.371 C69.690,19.487 72.912,16.877 77.745,16.857 C79.584,16.857 81.256,17.186 82.620,17.740 C82.620,17.740 82.620,16.405 82.620,16.405 C82.620,14.268 80.926,12.994 78.055,12.994 C76.713,12.994 75.060,13.528 73.738,14.288 C72.726,14.864 72.478,14.823 71.384,13.199 C70.310,11.576 70.351,11.268 71.384,10.610 C73.367,9.336 76.052,8.514 78.530,8.514 C84.086,8.514 87.577,11.514 87.577,16.610 C87.577,16.610 87.577,28.220 87.577,28.220 C87.577,28.837 87.143,29.268 86.524,29.268 ZM82.620,21.049 C81.484,20.617 80.100,20.370 78.861,20.370 C76.217,20.370 74.441,21.624 74.441,23.330 C74.441,24.706 75.618,25.631 77.394,25.631 C79.542,25.631 81.484,24.604 82.620,22.857 C82.620,22.857 82.620,21.049 82.620,21.049 ZM66.262,29.248 C66.262,29.248 63.412,29.248 63.412,29.248 C62.792,29.248 62.358,28.816 62.358,28.405 C62.358,28.405 62.358,1.446 62.358,1.446 C62.358,0.110 62.730,-0.013 64.837,-0.013 C67.233,-0.013 67.315,0.151 67.315,1.446 C67.315,1.446 67.315,28.405 67.315,28.405 C67.315,28.816 66.881,29.248 66.262,29.248 ZM59.982,23.412 C59.982,27.049 56.843,29.473 52.134,29.473 C49.655,29.473 46.598,28.651 44.492,27.583 C43.438,27.049 43.376,26.741 44.285,25.015 C45.070,23.494 45.318,23.330 46.454,23.802 C48.251,24.583 50.523,25.179 52.051,25.179 C53.786,25.179 54.943,24.480 54.943,23.453 C54.943,20.165 43.872,21.727 43.872,14.720 C43.872,11.001 46.991,8.514 51.659,8.514 C53.848,8.514 56.616,9.172 58.536,10.035 C59.672,10.528 59.755,10.898 58.867,12.583 C57.958,14.309 57.731,14.412 56.616,13.960 C55.211,13.364 53.414,12.912 52.257,12.912 C50.357,12.912 49.097,13.590 49.097,14.617 C49.097,18.007 59.982,16.179 59.982,23.412 ZM23.188,35.068 C10.696,38.797 5.283,35.897 1.535,23.469 C-2.212,11.041 0.702,5.656 13.194,1.927 C25.686,-1.801 31.099,1.098 34.847,13.526 C38.595,25.954 35.680,31.339 23.188,35.068 ZM25.154,27.274 C25.368,27.279 25.587,27.248 25.801,27.177 C26.788,26.848 27.320,25.786 26.990,24.804 C26.990,24.804 26.173,22.379 26.173,22.379 C26.173,22.379 28.529,21.594 28.529,21.594 C29.516,21.265 30.048,20.203 29.717,19.221 C29.387,18.239 28.319,17.710 27.332,18.039 C27.332,18.039 24.976,18.823 24.976,18.823 C24.976,18.823 23.411,14.172 23.411,14.172 C23.411,14.172 25.766,13.387 25.766,13.387 C26.753,13.058 27.285,11.996 26.954,11.014 C26.624,10.032 25.556,9.503 24.569,9.832 C24.569,9.832 22.214,10.617 22.214,10.617 C22.214,10.617 21.397,8.192 21.397,8.192 C21.067,7.210 19.999,6.681 19.012,7.009 C18.025,7.338 17.493,8.401 17.824,9.383 C17.824,9.383 18.640,11.807 18.640,11.807 C18.640,11.807 13.782,13.426 13.782,13.426 C13.782,13.426 12.966,11.001 12.966,11.001 C12.636,10.019 11.568,9.490 10.581,9.818 C9.594,10.147 9.062,11.210 9.392,12.192 C9.392,12.192 10.209,14.616 10.209,14.616 C10.209,14.616 7.854,15.401 7.854,15.401 C6.867,15.730 6.335,16.792 6.665,17.774 C6.924,18.542 7.634,19.034 8.403,19.054 C8.617,19.059 8.836,19.028 9.050,18.957 C9.050,18.957 11.406,18.172 11.406,18.172 C11.406,18.172 12.972,22.823 12.972,22.823 C12.972,22.823 10.616,23.608 10.616,23.608 C9.629,23.937 9.097,24.999 9.428,25.981 C9.686,26.750 10.396,27.241 11.166,27.260 C11.380,27.266 11.598,27.235 11.813,27.164 C11.813,27.164 14.169,26.379 14.169,26.379 C14.169,26.379 14.985,28.803 14.985,28.803 C15.244,29.572 15.954,30.063 16.723,30.083 C16.937,30.088 17.156,30.057 17.370,29.986 C18.357,29.657 18.889,28.595 18.559,27.613 C18.559,27.613 17.742,25.188 17.742,25.188 C17.742,25.188 22.600,23.570 22.600,23.570 C22.600,23.570 23.416,25.994 23.416,25.994 C23.675,26.763 24.385,27.254 25.154,27.274 ZM14.979,16.981 C14.979,16.981 14.980,16.981 14.980,16.981 C14.980,16.981 14.979,16.981 14.979,16.981 C14.979,16.981 19.837,15.363 19.837,15.363 C19.837,15.363 21.403,20.014 21.403,20.014 C21.403,20.014 16.545,21.633 16.545,21.633 C16.545,21.633 14.979,16.981 14.979,16.981 Z" id="path-1" class="cls-2" fill-rule="evenodd"/>
</svg>
