<svg xmlns="http://www.w3.org/2000/svg" xmlns:xlink="http://www.w3.org/1999/xlink" preserveAspectRatio="xMidYMid" width="181" height="44" viewBox="0 0 181 44">
  <defs>
    <style>

      .cls-2 {
        fill: #ffffff;
      }
    </style>
  </defs>
  <path d="M177.833,31.317 C177.833,31.317 177.833,21.971 177.833,21.971 C177.833,18.799 176.663,16.889 174.220,16.889 C172.499,16.889 171.157,18.151 170.641,19.618 C170.503,20.027 170.400,20.573 170.400,21.118 C170.400,21.118 170.400,31.317 170.400,31.317 C170.400,31.317 167.441,31.317 167.441,31.317 C167.441,31.317 167.441,21.425 167.441,21.425 C167.441,18.799 166.271,16.889 163.965,16.889 C162.073,16.889 160.696,18.389 160.214,19.890 C160.043,20.334 159.974,20.845 159.974,21.357 C159.974,21.357 159.974,31.317 159.974,31.317 C159.974,31.317 157.014,31.317 157.014,31.317 C157.014,31.317 157.014,19.276 157.014,19.276 C157.014,17.571 156.980,16.173 156.876,14.808 C156.876,14.808 159.527,14.808 159.527,14.808 C159.527,14.808 159.664,17.469 159.664,17.469 C159.664,17.469 159.767,17.469 159.767,17.469 C160.696,15.900 162.245,14.433 164.998,14.433 C167.269,14.433 168.989,15.797 169.712,17.741 C169.712,17.741 169.781,17.741 169.781,17.741 C170.297,16.820 170.951,16.104 171.639,15.593 C172.637,14.842 173.738,14.433 175.321,14.433 C177.523,14.433 180.792,15.865 180.792,21.596 C180.792,21.596 180.792,31.317 180.792,31.317 C180.792,31.317 177.833,31.317 177.833,31.317 ZM149.409,29.236 C149.409,29.236 149.305,29.236 149.305,29.236 C148.376,30.532 146.587,31.692 144.213,31.692 C140.840,31.692 139.120,29.338 139.120,26.951 C139.120,22.960 142.698,20.777 149.133,20.811 C149.133,20.811 149.133,20.470 149.133,20.470 C149.133,19.106 148.755,16.650 145.348,16.650 C143.800,16.650 142.182,17.128 141.013,17.878 C141.013,17.878 140.324,15.900 140.324,15.900 C141.700,15.013 143.696,14.433 145.796,14.433 C150.889,14.433 152.127,17.878 152.127,21.186 C152.127,21.186 152.127,27.360 152.127,27.360 C152.127,28.792 152.196,30.191 152.402,31.317 C152.402,31.317 149.649,31.317 149.649,31.317 C149.649,31.317 149.409,29.236 149.409,29.236 ZM149.202,22.892 C145.899,22.824 142.148,23.403 142.148,26.609 C142.148,28.554 143.455,29.475 145.004,29.475 C147.172,29.475 148.549,28.110 149.030,26.712 C149.133,26.405 149.202,26.064 149.202,25.757 C149.202,25.757 149.202,22.892 149.202,22.892 ZM132.478,21.118 C132.409,21.528 132.340,22.005 132.340,22.517 C132.340,22.517 132.340,31.317 132.340,31.317 C132.340,31.317 129.346,31.317 129.346,31.317 C129.346,31.317 129.346,19.958 129.346,19.958 C129.346,18.014 129.312,16.343 129.209,14.808 C129.209,14.808 131.859,14.808 131.859,14.808 C131.859,14.808 131.962,18.048 131.962,18.048 C131.962,18.048 132.099,18.048 132.099,18.048 C132.857,15.831 134.680,14.433 136.710,14.433 C137.055,14.433 137.295,14.467 137.571,14.535 C137.571,14.535 137.571,17.366 137.571,17.366 C137.261,17.298 136.951,17.264 136.539,17.264 C134.405,17.264 132.891,18.867 132.478,21.118 ZM124.528,28.929 C124.528,32.715 123.771,35.034 122.154,36.467 C120.536,37.967 118.196,38.445 116.098,38.445 C114.102,38.445 111.900,37.967 110.558,37.081 C110.558,37.081 111.314,34.796 111.314,34.796 C112.416,35.477 114.136,36.092 116.201,36.092 C119.298,36.092 121.569,34.488 121.569,30.327 C121.569,30.327 121.569,28.486 121.569,28.486 C121.569,28.486 121.500,28.486 121.500,28.486 C120.571,30.020 118.782,31.248 116.201,31.248 C112.071,31.248 109.112,27.769 109.112,23.199 C109.112,17.605 112.794,14.433 116.614,14.433 C119.504,14.433 121.087,15.934 121.810,17.298 C121.810,17.298 121.879,17.298 121.879,17.298 C121.879,17.298 122.016,14.808 122.016,14.808 C122.016,14.808 124.666,14.808 124.666,14.808 C124.597,16.002 124.528,17.332 124.528,19.344 C124.528,19.344 124.528,28.929 124.528,28.929 ZM121.534,21.323 C121.534,20.811 121.500,20.368 121.363,19.958 C120.812,18.219 119.332,16.786 117.130,16.786 C114.240,16.786 112.175,19.208 112.175,23.028 C112.175,26.269 113.827,28.963 117.096,28.963 C118.954,28.963 120.640,27.803 121.294,25.893 C121.466,25.382 121.534,24.802 121.534,24.290 C121.534,24.290 121.534,21.323 121.534,21.323 ZM94.762,23.608 C94.831,27.667 97.446,29.338 100.475,29.338 C102.642,29.338 103.950,28.963 105.085,28.486 C105.085,28.486 105.602,30.634 105.602,30.634 C104.535,31.112 102.711,31.658 100.062,31.658 C94.934,31.658 91.871,28.315 91.871,23.335 C91.871,18.355 94.831,14.433 99.683,14.433 C105.120,14.433 106.565,19.174 106.565,22.210 C106.565,22.824 106.496,23.301 106.462,23.608 C106.462,23.608 94.762,23.608 94.762,23.608 ZM99.442,16.582 C96.379,16.582 95.037,19.379 94.797,21.459 C94.797,21.459 103.640,21.459 103.640,21.459 C103.675,19.549 102.849,16.582 99.442,16.582 ZM84.954,7.100 C84.954,7.100 87.983,7.100 87.983,7.100 C87.983,7.100 87.983,31.317 87.983,31.317 C87.983,31.317 84.954,31.317 84.954,31.317 C84.954,31.317 84.954,7.100 84.954,7.100 ZM69.400,23.608 C69.469,27.667 72.084,29.338 75.112,29.338 C77.280,29.338 78.588,28.963 79.723,28.486 C79.723,28.486 80.240,30.634 80.240,30.634 C79.173,31.112 77.349,31.658 74.699,31.658 C69.572,31.658 66.509,28.315 66.509,23.335 C66.509,18.355 69.469,14.433 74.321,14.433 C79.758,14.433 81.203,19.174 81.203,22.210 C81.203,22.824 81.134,23.301 81.100,23.608 C81.100,23.608 69.400,23.608 69.400,23.608 ZM74.080,16.582 C71.017,16.582 69.675,19.379 69.435,21.459 C69.435,21.459 78.278,21.459 78.278,21.459 C78.313,19.549 77.487,16.582 74.080,16.582 ZM60.590,31.317 C60.590,31.317 57.562,31.317 57.562,31.317 C57.562,31.317 57.562,10.852 57.562,10.852 C57.562,10.852 50.508,10.852 50.508,10.852 C50.508,10.852 50.508,8.328 50.508,8.328 C50.508,8.328 67.679,8.328 67.679,8.328 C67.679,8.328 67.679,10.852 67.679,10.852 C67.679,10.852 60.590,10.852 60.590,10.852 C60.590,10.852 60.590,31.317 60.590,31.317 ZM21.957,43.502 C9.858,43.502 0.013,33.745 0.013,21.751 C0.013,9.758 9.858,0.001 21.957,0.001 C34.057,0.001 43.901,9.758 43.901,21.751 C43.901,33.745 34.057,43.502 21.957,43.502 ZM21.957,0.578 C10.179,0.578 0.596,10.077 0.596,21.751 C0.596,33.426 10.179,42.925 21.957,42.925 C33.736,42.925 43.319,33.426 43.319,21.751 C43.319,10.077 33.736,0.578 21.957,0.578 ZM22.076,28.842 C22.076,28.842 19.521,31.304 19.521,31.304 C19.426,31.434 19.207,31.656 18.866,31.782 C18.697,31.845 18.520,31.877 18.338,31.877 C18.338,31.877 18.017,31.874 18.017,31.874 C18.017,31.874 18.402,26.151 18.402,26.151 C18.402,26.151 18.356,26.117 18.356,26.117 C18.356,26.117 28.396,17.136 28.396,17.136 C28.837,16.749 28.300,16.560 27.715,16.911 C27.715,16.911 15.579,24.500 15.579,24.500 C15.579,24.500 17.442,30.579 17.442,30.579 C17.493,30.716 17.530,30.847 17.562,30.960 C17.659,31.299 17.659,31.299 17.988,31.299 C17.988,31.299 17.988,31.877 17.988,31.877 C17.269,31.877 17.136,31.590 17.001,31.117 C16.973,31.015 16.939,30.897 16.890,30.762 C16.890,30.762 14.987,24.555 14.987,24.555 C14.987,24.555 9.972,23.004 9.972,23.004 C8.816,22.653 8.807,21.866 10.231,21.300 C10.231,21.300 31.088,13.328 31.088,13.328 C32.040,12.900 32.960,13.555 32.596,15.000 C32.596,15.000 29.044,31.591 29.044,31.591 C28.796,32.770 28.078,33.052 27.082,32.507 C27.082,32.507 22.076,28.842 22.076,28.842 ZM18.923,27.077 C18.923,27.077 18.642,31.248 18.642,31.248 C18.649,31.246 18.655,31.244 18.661,31.242 C18.871,31.164 19.008,31.026 19.085,30.924 C19.085,30.924 21.484,28.607 21.484,28.607 C21.484,28.607 18.923,27.077 18.923,27.077 Z" id="path-1" class="cls-2" fill-rule="evenodd"/>
</svg>
